<?xml version="1.0" encoding="UTF-8"?>
<svg xmlns="http://www.w3.org/2000/svg" width="390" height="844" viewBox="0 0 390 844">
<rect x="0" y="0" width="390" height="844" rx="40" ry="40" fill="#111827"  opacity="1.0"/><rect x="8" y="8" width="374" height="828" rx="32" ry="32" fill="#FFFFFF"  opacity="1.0"/><rect x="135.0" y="20" width="120" height="28" rx="14" ry="14" fill="#111827"  opacity="1.0"/><text x="28" y="35" font-family="-apple-system, BlinkMacSystemFont, sans-serif" font-size="14" font-weight="600" fill="#111827" text-anchor="start">9:41</text><g transform="translate(320,25)" fill="#111827"><rect x="0" y="4" width="18" height="10" rx="2"/><rect x="22" y="6" width="16" height="6" rx="1"/><rect x="42" y="3" width="24" height="12" rx="3" fill="none" stroke="#111827" stroke-width="1.5"/><rect x="44" y="5" width="18" height="8" rx="1"/></g><rect x="135.0" y="816" width="120" height="6" rx="3" ry="3" fill="#111827"  opacity="1.0"/><g transform="translate(18,77)" fill="none" stroke="#111827" stroke-width="2.5" stroke-linecap="round"><path d="M8 0L0 10l8 10"/></g><text x="195.0" y="93" font-family="-apple-system, BlinkMacSystemFont, sans-serif" font-size="17" font-weight="600" fill="#111827" text-anchor="middle">Review &amp; launch</text><text x="24" y="129" font-family="-apple-system, BlinkMacSystemFont, sans-serif" font-size="22" font-weight="700" fill="#111827" text-anchor="start">Ready to go live?</text><text x="24" y="155" font-family="-apple-system, BlinkMacSystemFont, sans-serif" font-size="14" font-weight="normal" fill="#6B7280" text-anchor="start">Checklist before we enable quotes.</text><rect x="24" y="189" width="342" height="46" rx="12" ry="12" fill="#FFFFFF" stroke="#E5E7EB" stroke-width="1" opacity="1.0"/><g transform="translate(40,201)" fill="none" stroke="#10B981" stroke-width="2.5" stroke-linecap="round"><circle cx="9.0" cy="9.0" r="9.0"/><polyline points="4.5,9.9 7.56,12.959999999999999 13.5,5.76"/></g><text x="70" y="217" font-family="-apple-system, BlinkMacSystemFont, sans-serif" font-size="15" font-weight="normal" fill="#111827" text-anchor="start">Account created</text><rect x="24" y="243" width="342" height="46" rx="12" ry="12" fill="#FFFFFF" stroke="#E5E7EB" stroke-width="1" opacity="1.0"/><g transform="translate(40,255)" fill="none" stroke="#10B981" stroke-width="2.5" stroke-linecap="round"><circle cx="9.0" cy="9.0" r="9.0"/><polyline points="4.5,9.9 7.56,12.959999999999999 13.5,5.76"/></g><text x="70" y="271" font-family="-apple-system, BlinkMacSystemFont, sans-serif" font-size="15" font-weight="normal" fill="#111827" text-anchor="start">Business identity</text><rect x="24" y="297" width="342" height="46" rx="12" ry="12" fill="#FFFFFF" stroke="#E5E7EB" stroke-width="1" opacity="1.0"/><g transform="translate(40,309)" fill="none" stroke="#10B981" stroke-width="2.5" stroke-linecap="round"><circle cx="9.0" cy="9.0" r="9.0"/><polyline points="4.5,9.9 7.56,12.959999999999999 13.5,5.76"/></g><text x="70" y="325" font-family="-apple-system, BlinkMacSystemFont, sans-serif" font-size="15" font-weight="normal" fill="#111827" text-anchor="start">Service area</text><rect x="24" y="351" width="342" height="46" rx="12" ry="12" fill="#FFFFFF" stroke="#E5E7EB" stroke-width="1" opacity="1.0"/><g transform="translate(40,363)" fill="none" stroke="#10B981" stroke-width="2.5" stroke-linecap="round"><circle cx="9.0" cy="9.0" r="9.0"/><polyline points="4.5,9.9 7.56,12.959999999999999 13.5,5.76"/></g><text x="70" y="379" font-family="-apple-system, BlinkMacSystemFont, sans-serif" font-size="15" font-weight="normal" fill="#111827" text-anchor="start">Compliance &amp; credentials</text><rect x="24" y="405" width="342" height="46" rx="12" ry="12" fill="#FFFFFF" stroke="#E5E7EB" stroke-width="1" opacity="1.0"/><g transform="translate(40,417)" fill="none" stroke="#10B981" stroke-width="2.5" stroke-linecap="round"><circle cx="9.0" cy="9.0" r="9.0"/><polyline points="4.5,9.9 7.56,12.959999999999999 13.5,5.76"/></g><text x="70" y="433" font-family="-apple-system, BlinkMacSystemFont, sans-serif" font-size="15" font-weight="normal" fill="#111827" text-anchor="start">Services offered</text><rect x="24" y="459" width="342" height="46" rx="12" ry="12" fill="#FFFFFF" stroke="#E5E7EB" stroke-width="1" opacity="1.0"/><rect x="38" y="471" width="16" height="16" rx="8" ry="8" fill="#FFFFFF" stroke="#E5E7EB" stroke-width="2" opacity="1.0"/><text x="70" y="487" font-family="-apple-system, BlinkMacSystemFont, sans-serif" font-size="15" font-weight="normal" fill="#111827" text-anchor="start">Pricing setup</text><rect x="24" y="513" width="342" height="46" rx="12" ry="12" fill="#FFFFFF" stroke="#E5E7EB" stroke-width="1" opacity="1.0"/><rect x="38" y="525" width="16" height="16" rx="8" ry="8" fill="#FFFFFF" stroke="#E5E7EB" stroke-width="2" opacity="1.0"/><text x="70" y="541" font-family="-apple-system, BlinkMacSystemFont, sans-serif" font-size="15" font-weight="normal" fill="#111827" text-anchor="start">Branding</text><rect x="24" y="579" width="342" height="80" rx="16" ry="16" fill="#FFFFFF" stroke="#E5E7EB" stroke-width="1" opacity="1.0"/><text x="40" y="607" font-family="-apple-system, BlinkMacSystemFont, sans-serif" font-size="15" font-weight="600" fill="#111827" text-anchor="start">Compliance badges</text><text x="40" y="619" font-family="-apple-system, BlinkMacSystemFont, sans-serif" font-size="12" font-weight="normal" fill="#6B7280" text-anchor="start">CH verified · CPS verified · PL valid until Jun 2027</text><rect x="24" y="714" width="342" height="52" rx="12" ry="12" fill="#2563EB"  opacity="1.0"/><text x="195.0" y="746.0" font-family="-apple-system, BlinkMacSystemFont, sans-serif" font-size="17" font-weight="600" fill="#FFFFFF" text-anchor="middle">Go live</text>
</svg>
