<?xml version="1.0" encoding="UTF-8"?>
<svg xmlns="http://www.w3.org/2000/svg" width="390" height="844" viewBox="0 0 390 844">
<rect x="0" y="0" width="390" height="844" rx="40" ry="40" fill="#111827"  opacity="1.0"/><rect x="8" y="8" width="374" height="828" rx="32" ry="32" fill="#FFFFFF"  opacity="1.0"/><rect x="135.0" y="20" width="120" height="28" rx="14" ry="14" fill="#111827"  opacity="1.0"/><text x="28" y="35" font-family="-apple-system, BlinkMacSystemFont, sans-serif" font-size="14" font-weight="600" fill="#111827" text-anchor="start">9:41</text><g transform="translate(320,25)" fill="#111827"><rect x="0" y="4" width="18" height="10" rx="2"/><rect x="22" y="6" width="16" height="6" rx="1"/><rect x="42" y="3" width="24" height="12" rx="3" fill="none" stroke="#111827" stroke-width="1.5"/><rect x="44" y="5" width="18" height="8" rx="1"/></g><rect x="135.0" y="816" width="120" height="6" rx="3" ry="3" fill="#111827"  opacity="1.0"/><text x="24" y="93" font-family="-apple-system, BlinkMacSystemFont, sans-serif" font-size="18" font-weight="700" fill="#111827" text-anchor="start">My quotes</text><g transform="translate(342,73)" fill="none" stroke="#111827" stroke-width="2" stroke-linecap="round"><path d="M10 18a8 8 0 1 0-16 0"/><circle cx="10" cy="5" r="4"/></g><rect x="24" y="139" width="342" height="120" rx="16" ry="16" fill="#FFFFFF" stroke="#E5E7EB" stroke-width="1" opacity="1.0"/><text x="40" y="167" font-family="-apple-system, BlinkMacSystemFont, sans-serif" font-size="16" font-weight="600" fill="#111827" text-anchor="start">Consumer unit upgrade</text><text x="40" y="189" font-family="-apple-system, BlinkMacSystemFont, sans-serif" font-size="13" font-weight="normal" fill="#6B7280" text-anchor="start">Jenkins Electrical · SK8 3NJ</text><rect x="40" y="203" width="90" height="22" rx="11" ry="11" fill="#DBEAFE"  opacity="1.0"/><text x="85" y="218" font-family="-apple-system, BlinkMacSystemFont, sans-serif" font-size="12" font-weight="600" fill="#1D4ED8" text-anchor="middle">Quote sent</text><text x="40" y="243" font-family="-apple-system, BlinkMacSystemFont, sans-serif" font-size="13" font-weight="normal" fill="#111827" text-anchor="start">£650.00 inc VAT · valid until 14 Sep 2026</text><text x="24" y="279" font-family="-apple-system, BlinkMacSystemFont, sans-serif" font-size="17" font-weight="700" fill="#111827" text-anchor="start">What happens next?</text><rect x="24" y="309" width="342" height="44" rx="12" ry="12" fill="#FFFFFF" stroke="#E5E7EB" stroke-width="1" opacity="1.0"/><g transform="translate(40,321)" fill="none" stroke="#10B981" stroke-width="2.5" stroke-linecap="round"><circle cx="9.0" cy="9.0" r="9.0"/><polyline points="4.5,9.9 7.56,12.959999999999999 13.5,5.76"/></g><text x="70" y="337" font-family="-apple-system, BlinkMacSystemFont, sans-serif" font-size="15" font-weight="normal" fill="#111827" text-anchor="start">Quote sent</text><rect x="24" y="363" width="342" height="44" rx="12" ry="12" fill="#FFFFFF" stroke="#E5E7EB" stroke-width="1" opacity="1.0"/><rect x="40" y="375" width="16" height="16" rx="8" ry="8" fill="#FFFFFF" stroke="#E5E7EB" stroke-width="2" opacity="1.0"/><text x="70" y="391" font-family="-apple-system, BlinkMacSystemFont, sans-serif" font-size="15" font-weight="normal" fill="#111827" text-anchor="start">You accept</text><rect x="24" y="417" width="342" height="44" rx="12" ry="12" fill="#FFFFFF" stroke="#E5E7EB" stroke-width="1" opacity="1.0"/><rect x="40" y="429" width="16" height="16" rx="8" ry="8" fill="#FFFFFF" stroke="#E5E7EB" stroke-width="2" opacity="1.0"/><text x="70" y="445" font-family="-apple-system, BlinkMacSystemFont, sans-serif" font-size="15" font-weight="normal" fill="#111827" text-anchor="start">Job booked</text><rect x="24" y="664" width="342" height="52" rx="12" ry="12" fill="#2563EB"  opacity="1.0"/><text x="195.0" y="696.0" font-family="-apple-system, BlinkMacSystemFont, sans-serif" font-size="17" font-weight="600" fill="#FFFFFF" text-anchor="middle">Accept quote</text><rect x="24" y="728" width="342" height="52" rx="12" ry="12" fill="#FFFFFF" stroke="#E5E7EB" stroke-width="1" opacity="1.0"/><text x="195.0" y="756" font-family="-apple-system, BlinkMacSystemFont, sans-serif" font-size="17" font-weight="600" fill="#111827" text-anchor="middle">Decline / ask a question</text>
</svg>
