<?xml version="1.0" encoding="UTF-8"?>
<svg xmlns="http://www.w3.org/2000/svg" width="390" height="844" viewBox="0 0 390 844">
<rect x="0" y="0" width="390" height="844" rx="40" ry="40" fill="#111827"  opacity="1.0"/><rect x="8" y="8" width="374" height="828" rx="32" ry="32" fill="#FFFFFF"  opacity="1.0"/><rect x="135.0" y="20" width="120" height="28" rx="14" ry="14" fill="#111827"  opacity="1.0"/><text x="28" y="35" font-family="-apple-system, BlinkMacSystemFont, sans-serif" font-size="14" font-weight="600" fill="#111827" text-anchor="start">9:41</text><g transform="translate(320,25)" fill="#111827"><rect x="0" y="4" width="18" height="10" rx="2"/><rect x="22" y="6" width="16" height="6" rx="1"/><rect x="42" y="3" width="24" height="12" rx="3" fill="none" stroke="#111827" stroke-width="1.5"/><rect x="44" y="5" width="18" height="8" rx="1"/></g><rect x="135.0" y="816" width="120" height="6" rx="3" ry="3" fill="#111827"  opacity="1.0"/><text x="24" y="93" font-family="-apple-system, BlinkMacSystemFont, sans-serif" font-size="18" font-weight="700" fill="#111827" text-anchor="start">Calendar</text><g transform="translate(342,73)" fill="none" stroke="#111827" stroke-width="2" stroke-linecap="round"><path d="M10 18a8 8 0 1 0-16 0"/><circle cx="10" cy="5" r="4"/></g><text x="24" y="129" font-family="-apple-system, BlinkMacSystemFont, sans-serif" font-size="22" font-weight="700" fill="#111827" text-anchor="start">August 2026</text><rect x="24" y="173" width="46" height="64" rx="12" ry="12" fill="#FFFFFF" stroke="#E5E7EB" stroke-width="1" opacity="1.0"/><text x="47.0" y="195" font-family="-apple-system, BlinkMacSystemFont, sans-serif" font-size="11" font-weight="500" fill="#111827" text-anchor="middle">M</text><text x="47.0" y="219" font-family="-apple-system, BlinkMacSystemFont, sans-serif" font-size="18" font-weight="700" fill="#111827" text-anchor="middle">17</text><rect x="74" y="173" width="46" height="64" rx="12" ry="12" fill="#2563EB" stroke="#2563EB" stroke-width="1" opacity="1.0"/><text x="97.0" y="195" font-family="-apple-system, BlinkMacSystemFont, sans-serif" font-size="11" font-weight="500" fill="#FFFFFF" text-anchor="middle">T</text><text x="97.0" y="219" font-family="-apple-system, BlinkMacSystemFont, sans-serif" font-size="18" font-weight="700" fill="#FFFFFF" text-anchor="middle">18</text><rect x="124" y="173" width="46" height="64" rx="12" ry="12" fill="#FFFFFF" stroke="#E5E7EB" stroke-width="1" opacity="1.0"/><text x="147.0" y="195" font-family="-apple-system, BlinkMacSystemFont, sans-serif" font-size="11" font-weight="500" fill="#111827" text-anchor="middle">W</text><text x="147.0" y="219" font-family="-apple-system, BlinkMacSystemFont, sans-serif" font-size="18" font-weight="700" fill="#111827" text-anchor="middle">19</text><rect x="174" y="173" width="46" height="64" rx="12" ry="12" fill="#FFFFFF" stroke="#E5E7EB" stroke-width="1" opacity="1.0"/><text x="197.0" y="195" font-family="-apple-system, BlinkMacSystemFont, sans-serif" font-size="11" font-weight="500" fill="#111827" text-anchor="middle">T</text><text x="197.0" y="219" font-family="-apple-system, BlinkMacSystemFont, sans-serif" font-size="18" font-weight="700" fill="#111827" text-anchor="middle">20</text><rect x="224" y="173" width="46" height="64" rx="12" ry="12" fill="#FFFFFF" stroke="#E5E7EB" stroke-width="1" opacity="1.0"/><text x="247.0" y="195" font-family="-apple-system, BlinkMacSystemFont, sans-serif" font-size="11" font-weight="500" fill="#111827" text-anchor="middle">F</text><text x="247.0" y="219" font-family="-apple-system, BlinkMacSystemFont, sans-serif" font-size="18" font-weight="700" fill="#111827" text-anchor="middle">21</text><rect x="274" y="173" width="46" height="64" rx="12" ry="12" fill="#FFFFFF" stroke="#E5E7EB" stroke-width="1" opacity="1.0"/><text x="297.0" y="195" font-family="-apple-system, BlinkMacSystemFont, sans-serif" font-size="11" font-weight="500" fill="#111827" text-anchor="middle">S</text><text x="297.0" y="219" font-family="-apple-system, BlinkMacSystemFont, sans-serif" font-size="18" font-weight="700" fill="#111827" text-anchor="middle">22</text><rect x="324" y="173" width="46" height="64" rx="12" ry="12" fill="#FFFFFF" stroke="#E5E7EB" stroke-width="1" opacity="1.0"/><text x="347.0" y="195" font-family="-apple-system, BlinkMacSystemFont, sans-serif" font-size="11" font-weight="500" fill="#111827" text-anchor="middle">S</text><text x="347.0" y="219" font-family="-apple-system, BlinkMacSystemFont, sans-serif" font-size="18" font-weight="700" fill="#111827" text-anchor="middle">23</text><text x="24" y="253" font-family="-apple-system, BlinkMacSystemFont, sans-serif" font-size="17" font-weight="700" fill="#111827" text-anchor="start">Tuesday 18 August</text><rect x="24" y="281" width="342" height="92" rx="16" ry="16" fill="#FFFFFF" stroke="#E5E7EB" stroke-width="1" opacity="1.0"/><rect x="40" y="295" width="54" height="20" rx="10" ry="10" fill="#EFF6FF"  opacity="1.0"/><text x="67" y="308" font-family="-apple-system, BlinkMacSystemFont, sans-serif" font-size="10" font-weight="600" fill="#1D4ED8" text-anchor="middle">08:00</text><text x="67" y="321" font-family="-apple-system, BlinkMacSystemFont, sans-serif" font-size="10" font-weight="normal" fill="#6B7280" text-anchor="middle">10:00</text><rect x="24" y="299" width="4" height="56" rx="2" ry="2" fill="#10B981"  opacity="1.0"/><text x="108" y="303" font-family="-apple-system, BlinkMacSystemFont, sans-serif" font-size="14" font-weight="600" fill="#111827" text-anchor="start">Consumer unit upgrade</text><text x="108" y="321" font-family="-apple-system, BlinkMacSystemFont, sans-serif" font-size="12" font-weight="normal" fill="#6B7280" text-anchor="start">A. Smith</text><text x="108" y="337" font-family="-apple-system, BlinkMacSystemFont, sans-serif" font-size="11" font-weight="normal" fill="#6B7280" text-anchor="start">12 Bramhall Lane, SK8 3NJ</text><rect x="314" y="297" width="40" height="40" rx="20" ry="20" fill="#F3F4F6"  opacity="1.0"/><text x="334" y="321" font-family="-apple-system, BlinkMacSystemFont, sans-serif" font-size="13" font-weight="600" fill="#111827" text-anchor="middle">SJ</text><rect x="24" y="383" width="342" height="92" rx="16" ry="16" fill="#FFFFFF" stroke="#E5E7EB" stroke-width="1" opacity="1.0"/><rect x="40" y="397" width="54" height="20" rx="10" ry="10" fill="#EFF6FF"  opacity="1.0"/><text x="67" y="410" font-family="-apple-system, BlinkMacSystemFont, sans-serif" font-size="10" font-weight="600" fill="#1D4ED8" text-anchor="middle">10:30</text><text x="67" y="423" font-family="-apple-system, BlinkMacSystemFont, sans-serif" font-size="10" font-weight="normal" fill="#6B7280" text-anchor="middle">12:00</text><rect x="24" y="401" width="4" height="56" rx="2" ry="2" fill="#F59E0B"  opacity="1.0"/><text x="108" y="405" font-family="-apple-system, BlinkMacSystemFont, sans-serif" font-size="14" font-weight="600" fill="#111827" text-anchor="start">EV charger install</text><text x="108" y="423" font-family="-apple-system, BlinkMacSystemFont, sans-serif" font-size="12" font-weight="normal" fill="#6B7280" text-anchor="start">B. Jones</text><text x="108" y="439" font-family="-apple-system, BlinkMacSystemFont, sans-serif" font-size="11" font-weight="normal" fill="#6B7280" text-anchor="start">45 High St, M20 1AA</text><rect x="314" y="399" width="40" height="40" rx="20" ry="20" fill="#F3F4F6"  opacity="1.0"/><text x="334" y="423" font-family="-apple-system, BlinkMacSystemFont, sans-serif" font-size="13" font-weight="600" fill="#111827" text-anchor="middle">MJ</text><rect x="24" y="485" width="342" height="92" rx="16" ry="16" fill="#FFFFFF" stroke="#E5E7EB" stroke-width="1" opacity="1.0"/><rect x="40" y="499" width="54" height="20" rx="10" ry="10" fill="#EFF6FF"  opacity="1.0"/><text x="67" y="512" font-family="-apple-system, BlinkMacSystemFont, sans-serif" font-size="10" font-weight="600" fill="#1D4ED8" text-anchor="middle">14:00</text><text x="67" y="525" font-family="-apple-system, BlinkMacSystemFont, sans-serif" font-size="10" font-weight="normal" fill="#6B7280" text-anchor="middle">16:00</text><rect x="24" y="503" width="4" height="56" rx="2" ry="2" fill="#6B7280"  opacity="1.0"/><text x="108" y="507" font-family="-apple-system, BlinkMacSystemFont, sans-serif" font-size="14" font-weight="600" fill="#111827" text-anchor="start">EICR</text><text x="108" y="525" font-family="-apple-system, BlinkMacSystemFont, sans-serif" font-size="12" font-weight="normal" fill="#6B7280" text-anchor="start">C. Lee</text><text x="108" y="541" font-family="-apple-system, BlinkMacSystemFont, sans-serif" font-size="11" font-weight="normal" fill="#6B7280" text-anchor="start">7 Oak Ave, WA14 1DE</text><rect x="314" y="501" width="40" height="40" rx="20" ry="20" fill="#F3F4F6"  opacity="1.0"/><text x="334" y="525" font-family="-apple-system, BlinkMacSystemFont, sans-serif" font-size="13" font-weight="600" fill="#111827" text-anchor="middle">SJ</text><rect x="316" y="690" width="50" height="50" rx="25" ry="25" fill="#2563EB"  opacity="1.0"/><text x="341" y="717" font-family="-apple-system, BlinkMacSystemFont, sans-serif" font-size="28" font-weight="300" fill="#FFFFFF" text-anchor="middle">+</text><rect x="0" y="740" width="390" height="70" rx="0" ry="0" fill="#FFFFFF"  opacity="1.0"/><g transform="translate(24,740)" fill="none" stroke="#6B7280" stroke-width="2" stroke-linecap="round"><path d="M4 20h16M4 14h12M4 8h8"/></g><text x="48" y="778" font-family="-apple-system, BlinkMacSystemFont, sans-serif" font-size="10" font-weight="500" fill="#6B7280" text-anchor="middle">Leads</text><g transform="translate(130.0,740)" fill="none" stroke="#6B7280" stroke-width="2" stroke-linecap="round"><path d="M6 4h12a2 2 0 0 1 2 2v14a2 2 0 0 1-2 2H6a2 2 0 0 1-2-2V6a2 2 0 0 1 2-2z"/><path d="M8 10h8M8 14h8M8 18h5"/></g><text x="154.0" y="778" font-family="-apple-system, BlinkMacSystemFont, sans-serif" font-size="10" font-weight="500" fill="#6B7280" text-anchor="middle">Quotes</text><g transform="translate(236.0,740)" fill="none" stroke="#2563EB" stroke-width="2" stroke-linecap="round"><rect x="3" y="5" width="18" height="16" rx="2"/><path d="M16 2v4M8 2v4M4 10h16"/></g><text x="260.0" y="778" font-family="-apple-system, BlinkMacSystemFont, sans-serif" font-size="10" font-weight="500" fill="#2563EB" text-anchor="middle">Calendar</text><g transform="translate(342.0,740)" fill="none" stroke="#6B7280" stroke-width="2" stroke-linecap="round"><circle cx="12" cy="12" r="3"/><path d="M19.4 15a1.8 1.8 0 0 0 .36 1.98l.06.06a2 2 0 1 1-2.83 2.83l-.06-.06a1.8 1.8 0 0 0-1.98-.36 1.8 1.8 0 0 0-1.1 1.65v.17a2 2 0 1 1-4 0v-.17a1.8 1.8 0 0 0-1.1-1.65 1.8 1.8 0 0 0-1.98.36l-.06.06a2 2 0 1 1-2.83-2.83l.06-.06a1.8 1.8 0 0 0 .36-1.98 1.8 1.8 0 0 0-1.65-1.1h-.17a2 2 0 1 1 0-4h.17a1.8 1.8 0 0 0 1.65-1.1 1.8 1.8 0 0 0-.36-1.98l-.06-.06a2 2 0 1 1 2.83-2.83l.06.06a1.8 1.8 0 0 0 1.98.36h.08a1.8 1.8 0 0 0 1.1-1.65v-.17a2 2 0 1 1 4 0v.17a1.8 1.8 0 0 0 1.1 1.65z"/></g><text x="366.0" y="778" font-family="-apple-system, BlinkMacSystemFont, sans-serif" font-size="10" font-weight="500" fill="#6B7280" text-anchor="middle">Settings</text>
</svg>
